<svg xmlns="http://www.w3.org/2000/svg" viewBox="0 0 128 128" role="img" aria-labelledby="title desc">
  <title id="title">WayMakeup icon</title>
  <desc id="desc">A translucent desktop window with annotation tools and a bright drawing stroke.</desc>
  <defs>
    <linearGradient id="window" x1="24" y1="20" x2="104" y2="112" gradientUnits="userSpaceOnUse">
      <stop offset="0" stop-color="#eef8ff"/>
      <stop offset="1" stop-color="#b6d4df"/>
    </linearGradient>
    <linearGradient id="stroke" x1="34" y1="86" x2="99" y2="43" gradientUnits="userSpaceOnUse">
      <stop offset="0" stop-color="#ff3b4f"/>
      <stop offset="0.55" stop-color="#ff8a2a"/>
      <stop offset="1" stop-color="#ffd45a"/>
    </linearGradient>
    <filter id="shadow" x="-20%" y="-20%" width="140%" height="150%">
      <feDropShadow dx="0" dy="6" stdDeviation="6" flood-color="#12313a" flood-opacity="0.24"/>
    </filter>
  </defs>

  <rect width="128" height="128" rx="28" fill="#17292e"/>
  <path d="M24 23h80c6.6 0 12 5.4 12 12v58c0 6.6-5.4 12-12 12H24c-6.6 0-12-5.4-12-12V35c0-6.6 5.4-12 12-12Z" fill="url(#window)" filter="url(#shadow)"/>
  <path d="M24 23h80c6.6 0 12 5.4 12 12v11H12V35c0-6.6 5.4-12 12-12Z" fill="#2c4a52"/>
  <circle cx="27" cy="34.5" r="3.5" fill="#ff5f57"/>
  <circle cx="39" cy="34.5" r="3.5" fill="#ffbd2e"/>
  <circle cx="51" cy="34.5" r="3.5" fill="#28c840"/>

  <path d="M34 86c14-22 26-29 41-24 10 3 18-2 24-19" fill="none" stroke="url(#stroke)" stroke-width="8" stroke-linecap="round" stroke-linejoin="round"/>
  <path d="M88 42h14v14" fill="none" stroke="#ffd45a" stroke-width="8" stroke-linecap="round" stroke-linejoin="round"/>

  <rect x="30" y="57" width="30" height="20" rx="3" fill="none" stroke="#244850" stroke-width="5"/>
  <circle cx="85" cy="80" r="13" fill="none" stroke="#244850" stroke-width="5"/>
  <path d="M36 95h52" stroke="#244850" stroke-width="5" stroke-linecap="round"/>
  <path d="M43 65h10M85 80h.1" stroke="#244850" stroke-width="5" stroke-linecap="round"/>
</svg>
